<svg width="60" height="86" viewBox="0 0 60 86" fill="none" xmlns="http://www.w3.org/2000/svg">
<path d="M29.9634 85.4978L5.54574 78.6307L0.10437 16.8024H59.8957L54.4485 78.6211L29.9634 85.4978Z" fill="#EEEEEE"/>
<path d="M49.7852 74.6846L54.4401 21.8577H30V80.2414L49.7852 74.6846Z" fill="#EEEEEE"/>
<path d="M12.5786 44.7889L13.2495 52.3718H30V44.7889H12.5786Z" fill="#393E46"/>
<path d="M11.2306 29.4408L11.911 37.0239H30V29.4408H11.2306Z" fill="#393E46"/>
<path d="M30 64.7202L29.9672 64.7291L21.6308 62.4487L21.0979 56.4009H13.5839L14.6325 68.3073L29.9655 72.6194L30 72.6097V64.7202Z" fill="#393E46"/>
<path d="M14.1758 0.237427H23.2417V4.07814H17.967V7.91886H23.2417V11.7596H14.1758V0.237427Z" fill="#EEEEEE"/>
<path d="M25.0551 0H34.121V3.33975H28.8463V4.00771H34.121V11.6891H25.0551V8.1824H30.3298V7.51445H25.0551V0Z" fill="#EEEEEE"/>
<path d="M35.9341 0H45V3.33975H39.7253V4.00771H45V11.6891H35.9341V8.1824H41.2088V7.51445H35.9341V0Z" fill="#EEEEEE"/>
<path d="M47.3735 44.789L48.7248 29.4408H29.9741V37.0239H40.5216L39.8405 44.789H29.9741V52.3719H39.1914L38.3225 62.2065L29.9741 64.4892V72.3784L45.3193 68.0699L45.4319 66.7888L47.1908 46.8252L47.3735 44.789Z" fill="#393E46"/>
</svg>
