<svg width="60" height="60" viewBox="0 0 60 60" fill="none" xmlns="http://www.w3.org/2000/svg">
<g clip-path="url(#clip0)">
<path d="M58.8691 27.3266L32.6722 1.13167C31.1646 -0.377223 28.7176 -0.377223 27.208 1.13167L21.7682 6.57145L28.6688 13.4721C30.2725 12.9303 32.1113 13.2937 33.3897 14.5721C34.6741 15.8585 35.0349 17.713 34.4799 19.322L41.1304 25.9724C42.7393 25.4181 44.5958 25.7769 45.8809 27.0639C47.6768 28.8592 47.6768 31.769 45.8809 33.5656C44.0843 35.3622 41.1745 35.3622 39.3772 33.5656C38.0263 32.2134 37.6926 30.2292 38.3766 28.5649L32.1745 22.3628L32.1738 38.6841C32.6116 38.9014 33.025 39.1904 33.3897 39.5538C35.1856 41.349 35.1856 44.2588 33.3897 46.0567C31.5931 47.8527 28.682 47.8527 26.8881 46.0567C25.0921 44.2588 25.0921 41.349 26.8881 39.5538C27.3318 39.1107 27.8453 38.7756 28.393 38.5505V22.0771C27.8453 21.8533 27.3324 21.5201 26.8881 21.0738C25.5273 19.715 25.2001 17.7183 25.8973 16.0474L19.0954 9.24426L1.13289 27.2055C-0.376655 28.7157 -0.376655 31.1627 1.13289 32.6716L27.3298 58.8672C28.838 60.3761 31.2844 60.3761 32.7946 58.8672L58.8691 32.7934C60.378 31.2838 60.378 28.8355 58.8691 27.3266Z" fill="#EEEEEE"/>
</g>
<defs>
<clipPath id="clip0">
<rect width="60" height="60" fill="white"/>
</clipPath>
</defs>
</svg>
