<svg width="802" height="596" viewBox="0 0 802 596" fill="none" xmlns="http://www.w3.org/2000/svg">
<path d="M460.594 516.544C362.11 516.544 282.272 510.088 282.272 502.125C282.272 494.161 362.11 487.706 460.594 487.706C559.079 487.706 638.917 494.161 638.917 502.125C638.917 510.088 559.079 516.544 460.594 516.544Z" fill="#E6E7E8"/>
<path d="M163.083 366.762H289.881V469.082H163.083V366.762Z" fill="white"/>
<path d="M163.083 470.094H289.881C290.147 470.094 290.401 469.989 290.589 469.803C290.777 469.617 290.882 469.365 290.882 469.102V366.762C290.882 366.499 290.777 366.247 290.589 366.061C290.401 365.875 290.147 365.771 289.881 365.771H163.083C162.819 365.776 162.567 365.882 162.381 366.067C162.194 366.251 162.087 366.501 162.082 366.762V469.102C162.087 469.364 162.194 469.613 162.381 469.798C162.567 469.983 162.819 470.089 163.083 470.094ZM288.88 468.111H164.084V367.754H288.86L288.88 468.111Z" fill="#D1D3D4"/>
<path d="M163.083 380.903H289.881C290.147 380.903 290.401 380.799 290.589 380.613C290.777 380.427 290.882 380.175 290.882 379.912C290.882 379.649 290.777 379.396 290.589 379.21C290.401 379.024 290.147 378.92 289.881 378.92H163.083C162.817 378.92 162.563 379.024 162.375 379.21C162.187 379.396 162.082 379.649 162.082 379.912C162.087 380.173 162.194 380.422 162.381 380.607C162.567 380.792 162.819 380.898 163.083 380.903Z" fill="#D1D3D4"/>
<path d="M512.459 175.589C515.194 175.771 517.922 175.155 520.307 173.817C522.692 172.479 524.629 170.478 525.877 168.062C527.126 165.645 527.632 162.919 527.333 160.221C527.034 157.522 525.942 154.97 524.194 152.88C531.843 149.389 535.888 140.424 535.327 132.114C534.767 123.804 530.341 116.247 524.814 109.861C520.269 104.645 514.562 99.9443 507.733 98.6552C506.441 98.5276 505.18 98.1787 504.008 97.6238C503.086 96.9814 502.286 96.1823 501.645 95.2637C496.659 88.9567 490.511 83.1653 482.822 80.6267C475.132 78.088 465.721 79.5358 460.574 85.7437C458.002 83.5317 454.812 82.1456 451.426 81.7686C448.041 81.3916 444.62 82.0416 441.615 83.6325C438.611 85.2234 436.166 87.6803 434.602 90.6781C433.039 93.6758 432.431 97.0731 432.859 100.42C427.442 101.213 422.362 103.509 418.208 107.044C414.054 110.579 410.997 115.207 409.39 120.393C406.527 130.825 411.393 143.082 421.105 148.02C422.226 148.596 423.568 149.349 423.528 150.579C423.417 151.321 423.082 152.013 422.567 152.562C419.443 156.985 421.005 163.391 424.569 167.398C428.134 171.404 433.46 173.526 438.587 175.549C437.446 176.681 436.686 178.135 436.41 179.711C436.134 181.287 436.356 182.908 437.045 184.355C438.53 187.251 440.842 189.651 443.693 191.257C454.827 198.377 468.604 196.156 481.08 196.414C492.594 196.652 504.028 189.373 511.658 181.122C513.14 179.555 514.321 176.699 512.459 175.589Z" fill="white"/>
<path d="M467.283 197.544C469.285 197.544 471.288 197.544 473.13 197.544C475.733 197.544 478.457 197.425 481.02 197.544C491.473 197.723 503.047 191.912 512.379 181.935C513.036 181.283 513.552 180.505 513.896 179.65C514.24 178.794 514.406 177.878 514.382 176.957C514.393 176.885 514.393 176.811 514.382 176.739C517.078 176.611 519.688 175.761 521.936 174.281C524.184 172.801 525.984 170.746 527.147 168.333C528.309 165.92 528.79 163.241 528.538 160.579C528.286 157.917 527.311 155.373 525.716 153.217C532.624 149.448 536.93 140.94 536.329 132.055C535.828 124.458 532.204 116.783 525.576 109.206C519.808 102.622 514.041 98.8535 507.914 97.6833L507.233 97.5643C506.269 97.5268 505.331 97.249 504.505 96.7567C503.679 96.2644 502.992 95.5735 502.507 94.748C496.219 86.8147 489.911 81.9357 483.143 79.6945C474.792 76.9377 465.641 78.8615 460.454 84.3553C457.725 82.2681 454.443 81.009 451.006 80.7305C447.569 80.4519 444.124 81.1657 441.088 82.7856C438.052 84.4054 435.556 86.862 433.9 89.8579C432.244 92.8538 431.5 96.2608 431.758 99.6667C426.348 100.635 421.31 103.056 417.192 106.665C413.075 110.274 410.037 114.933 408.409 120.135C405.366 131.221 410.752 143.935 420.645 148.913C421.646 149.409 422.547 149.964 422.527 150.559C422.428 150.971 422.228 151.352 421.946 151.67L421.766 151.927C418.202 156.925 420.224 163.927 423.929 167.973C427.593 171.535 432.012 174.245 436.865 175.906C435.988 177.206 435.458 178.704 435.325 180.261C435.192 181.819 435.46 183.384 436.104 184.811C437.636 187.869 440.056 190.403 443.053 192.09C450.482 196.85 458.892 197.544 467.283 197.544ZM478.797 195.402C476.895 195.402 474.972 195.402 473.09 195.402C463.078 195.6 452.765 195.819 444.214 190.345C441.52 188.858 439.336 186.606 437.946 183.879C437.325 182.616 437.116 181.192 437.35 179.806C437.583 178.419 438.246 177.14 439.248 176.144C439.379 176.034 439.479 175.892 439.539 175.732C439.598 175.572 439.615 175.4 439.588 175.232C439.56 175.061 439.488 174.9 439.38 174.765C439.271 174.629 439.129 174.524 438.967 174.458C434.282 172.594 428.955 170.492 425.411 166.525C422.227 163.054 420.444 157.104 423.408 152.939L423.588 152.721C424.134 152.097 424.47 151.321 424.549 150.499C424.549 148.516 422.647 147.564 421.586 147.029C412.494 142.388 407.568 130.765 410.372 120.531C411.956 115.558 414.922 111.126 418.931 107.745C422.941 104.363 427.83 102.169 433.04 101.412C433.299 101.373 433.532 101.234 433.69 101.027C433.847 100.819 433.916 100.559 433.881 100.301C433.488 97.1594 434.062 93.9731 435.529 91.1601C436.996 88.3471 439.287 86.0388 442.101 84.5378C444.916 83.0368 448.123 82.4132 451.301 82.7487C454.48 83.0842 457.482 84.3632 459.914 86.418C460.014 86.5057 460.132 86.572 460.259 86.6129C460.387 86.6539 460.521 86.6685 460.655 86.656C460.787 86.6462 460.915 86.6094 461.033 86.548C461.15 86.4866 461.253 86.4018 461.335 86.299C465.841 80.8647 474.552 78.8813 482.482 81.5192C488.87 83.6215 494.877 88.3022 500.845 95.819C501.552 96.8364 502.441 97.717 503.468 98.4172C504.525 98.9746 505.681 99.3248 506.872 99.4485L507.513 99.5675C513.18 100.658 518.587 104.208 524.054 110.436C530.382 117.675 533.826 124.974 534.307 132.114C534.887 140.682 530.562 148.814 523.753 151.947C523.615 152.011 523.493 152.105 523.396 152.221C523.299 152.338 523.229 152.475 523.193 152.622C523.161 152.771 523.164 152.926 523.202 153.074C523.24 153.222 523.312 153.359 523.413 153.474C525.064 155.407 526.101 157.781 526.394 160.296C526.686 162.811 526.221 165.356 525.056 167.61C523.892 169.863 522.08 171.726 519.849 172.962C517.618 174.198 515.068 174.753 512.519 174.557C512.291 174.534 512.062 174.591 511.872 174.718C511.682 174.845 511.542 175.034 511.478 175.252C511.41 175.464 511.416 175.694 511.496 175.903C511.576 176.111 511.725 176.287 511.919 176.402C512.042 176.47 512.147 176.567 512.224 176.684C512.301 176.802 512.347 176.937 512.359 177.076C512.325 178.342 511.793 179.545 510.877 180.428C502.026 189.988 490.852 195.581 481.06 195.382L478.797 195.402Z" fill="#231F20"/>
<path d="M369.44 466.048C364.855 466.048 330.672 469.717 314.672 477.591C298.672 485.465 295.208 486.08 298.452 496.71C301.696 507.341 329.871 509.959 351.318 505.953C365.131 503.14 378.455 498.342 390.867 491.712L369.44 466.048Z" fill="white"/>
<path d="M331.093 508.789C337.935 508.762 344.761 508.098 351.478 506.805C365.386 503.971 378.803 499.147 391.308 492.486C391.424 492.416 391.525 492.324 391.604 492.215C391.683 492.106 391.739 491.982 391.768 491.851C391.792 491.722 391.786 491.589 391.751 491.462C391.716 491.335 391.654 491.217 391.568 491.117L370.141 465.453C370.063 465.348 369.96 465.262 369.842 465.204C369.723 465.145 369.593 465.115 369.46 465.116H369.26C363.673 465.116 330.292 468.884 314.272 476.758L310.667 478.523C297.831 484.751 294.367 486.456 297.571 496.968C299.593 503.632 312.77 508.789 331.093 508.789ZM389.445 491.435C377.387 497.739 364.491 502.326 351.138 505.06C329.611 509.027 302.297 506.21 299.313 496.452C296.569 487.408 298.552 486.437 311.468 480.169L315.073 478.404C330.352 470.887 363.032 467.059 369.02 466.94L389.445 491.435Z" fill="#231F20"/>
<path d="M364.855 465.949C361.831 466.682 359.2 468.521 357.488 471.096C355.775 473.67 355.109 476.791 355.623 479.832C357.125 491.117 381.215 491.593 382.597 491.732C383.979 491.871 364.855 465.949 364.855 465.949Z" fill="white"/>
<path d="M382.597 492.367C382.776 492.361 382.95 492.311 383.104 492.221C383.258 492.131 383.387 492.004 383.478 491.851C383.778 491.256 384.259 490.344 365.596 465.334C365.489 465.188 365.339 465.078 365.168 465.018C364.996 464.957 364.81 464.95 364.634 464.997C364.534 464.997 353.12 467.833 354.622 479.792C356.144 491.276 378.091 492.287 382.477 492.367H382.597ZM364.574 466.92C370.442 474.854 379.173 486.754 381.355 490.522C375.869 490.264 357.826 488.737 356.604 479.554C356.134 476.867 356.678 474.103 358.133 471.788C359.588 469.472 361.852 467.768 364.494 467L364.574 466.92Z" fill="#231F20"/>
<path d="M543.398 491.792C544.098 492.149 550.647 500.578 579.202 503.949C607.758 507.321 618.351 513.41 624.719 498.555C631.087 483.7 626.722 474.1 612.704 469.856C598.687 465.612 559.858 462.101 552.249 469.201C544.639 476.302 543.398 491.792 543.398 491.792Z" fill="white"/>
<path d="M610.622 508.987C617.691 508.987 622.236 506.647 625.561 498.912C628.885 491.177 629.385 484.533 626.962 479.396C624.719 474.636 619.994 471.125 612.945 469.003C599.768 465.036 559.738 460.951 551.608 468.547C543.818 475.806 542.577 491.078 542.517 491.712C542.508 491.88 542.544 492.048 542.621 492.197C542.698 492.347 542.814 492.474 542.957 492.565L543.238 492.803C551.468 500.221 567.268 503.453 579.123 504.842C585.27 505.576 590.557 506.428 595.143 507.182C600.25 508.161 605.424 508.765 610.622 508.987ZM573.656 466.028C587.373 466.028 603.994 468.19 612.364 470.729C618.932 472.712 623.298 475.885 625.3 480.169C627.503 484.81 627.022 490.879 623.878 498.198C619.173 509.205 612.224 508.114 595.483 505.397C590.797 504.644 585.47 503.791 579.303 503.057C567.728 501.688 552.289 498.555 544.419 491.454C544.7 488.856 546.422 476.024 552.89 469.915C555.773 467.099 564.004 466.028 573.656 466.028Z" fill="#231F20"/>
<path d="M534.286 485.722C534.286 485.722 547.242 496.433 555.873 495.163C564.504 493.894 576.439 489.213 571.633 479.991C566.827 470.768 535.888 465.215 535.888 465.215L534.286 485.722Z" fill="white"/>
<path d="M554.392 496.175C554.935 496.175 555.477 496.135 556.014 496.056C562.482 495.104 570.291 492.367 572.795 487.508C573.413 486.263 573.705 484.884 573.646 483.498C573.586 482.112 573.177 480.763 572.454 479.574C567.488 470.015 537.33 464.56 536.049 464.322C535.923 464.301 535.793 464.306 535.669 464.336C535.545 464.367 535.429 464.423 535.328 464.501C535.226 464.58 535.142 464.679 535.08 464.792C535.018 464.904 534.98 465.028 534.967 465.155L533.365 485.643C533.354 485.788 533.378 485.933 533.433 486.068C533.489 486.202 533.575 486.321 533.686 486.417C534.206 486.833 545.601 496.175 554.392 496.175ZM536.71 466.306C542.016 467.337 566.747 472.553 570.752 480.407C571.343 481.34 571.686 482.406 571.749 483.505C571.812 484.604 571.593 485.701 571.113 486.694C568.91 490.919 561.701 493.378 555.673 494.271C548.324 495.362 537.29 486.992 535.168 485.326L536.71 466.306Z" fill="#231F20"/>
<path d="M378.652 395.759C378.652 395.759 392.309 448.515 442.151 458.59C491.994 468.666 517.786 466.008 535.448 432.688C553.11 399.368 541.455 378.98 541.455 378.98L384.159 375.886L378.652 395.759Z" fill="#393E46"/>
<path d="M483.262 464.759C507.292 464.759 523.973 456.468 536.349 433.144C554.051 399.725 542.777 379.337 542.356 378.484C542.269 378.334 542.143 378.209 541.992 378.122C541.841 378.035 541.67 377.989 541.495 377.988L384.199 374.894C383.972 374.882 383.748 374.949 383.565 375.083C383.383 375.217 383.253 375.409 383.197 375.628L377.751 395.461C377.71 395.631 377.71 395.807 377.751 395.977C377.891 396.512 392.129 449.527 442.031 459.542C457.791 462.775 471.428 464.759 483.262 464.759ZM540.794 379.951C542.356 383.224 550.246 402.621 534.566 432.232C516.644 465.949 490.511 467.377 442.451 457.619C395.533 448.138 380.895 399.646 379.793 395.758L384.98 376.897L540.794 379.951Z" fill="#231F20"/>
<path d="M553.19 396.234C553.19 396.234 578.962 313.728 575.578 262.022C572.194 210.317 552.789 208.472 526.316 205.557C514.562 204.248 451.944 195.065 428.494 222.395C405.045 249.726 363.773 377.73 363.773 377.73L553.19 396.234Z" fill="#00ADB5"/>
<path d="M460.174 205.696L464.179 233.304C464.179 233.304 472.95 247.564 490.512 240.345C508.074 233.125 508.414 219.817 508.414 219.817L500.084 168.806C500.084 168.806 481.561 152.344 473.771 120.888C473.771 120.888 458.251 147.703 435.723 153.732C435.723 153.732 437.225 176.005 441.25 189.809C445.255 203.157 459.894 205.537 460.174 205.696Z" fill="white"/>
<path d="M481.1 243.359C484.506 243.318 487.869 242.604 490.993 241.257C509.015 233.879 509.496 220.412 509.516 219.837L501.125 168.647C501.084 168.42 500.972 168.212 500.805 168.052C500.625 167.893 482.422 151.432 474.772 120.65C474.717 120.461 474.609 120.292 474.46 120.162C474.311 120.032 474.127 119.947 473.931 119.916C473.736 119.889 473.536 119.92 473.358 120.004C473.18 120.089 473.031 120.224 472.93 120.392C472.77 120.67 457.33 146.929 435.523 152.76C435.298 152.82 435.1 152.956 434.965 153.144C434.83 153.332 434.765 153.561 434.782 153.792C434.782 154.01 436.344 176.342 440.349 190.087C443.653 201.412 454.367 205.299 459.253 206.489L463.258 233.442C463.276 233.574 463.317 233.701 463.378 233.819C465.351 236.692 467.989 239.057 471.072 240.716C474.154 242.376 477.593 243.282 481.1 243.359ZM499.123 169.282L507.413 219.976C507.413 220.293 506.812 232.55 490.111 239.432C474.512 245.838 466.081 234.434 465.12 232.947L461.115 205.557C461.097 205.406 461.041 205.263 460.954 205.139C460.867 205.014 460.75 204.913 460.615 204.843C460.43 204.737 460.226 204.669 460.014 204.645C455.708 203.633 445.336 200.122 442.252 189.531C438.727 177.453 437.125 158.572 436.825 154.466C455.648 148.992 469.305 129.774 473.391 123.407C481 151.332 496.96 167.1 499.123 169.282Z" fill="#231F20"/>
<path d="M489.29 169.579C489.515 166.999 490.584 164.562 492.334 162.638C494.036 160.909 496.028 159.486 498.221 158.433C499.359 157.736 500.637 157.296 501.966 157.144C502.906 157.153 503.836 157.334 504.709 157.679C506.841 158.353 508.66 159.76 509.836 161.646C510.61 163.246 510.974 165.01 510.897 166.783C510.976 168.701 510.801 170.621 510.376 172.495C509.906 174.365 509.063 176.124 507.898 177.667C506.732 179.211 505.267 180.509 503.588 181.484C501.91 182.459 500.051 183.093 498.122 183.348C496.193 183.602 494.232 183.473 492.354 182.967" fill="white"/>
<path d="M496.159 184.375C499.644 184.378 503.03 183.228 505.78 181.108C508.529 178.989 510.486 176.02 511.338 172.673C511.802 170.725 511.991 168.723 511.899 166.723C511.969 164.791 511.564 162.872 510.717 161.13C509.441 159.057 507.46 157.502 505.13 156.747C504.134 156.363 503.075 156.162 502.006 156.152C500.523 156.307 499.093 156.788 497.821 157.56C495.532 158.667 493.452 160.157 491.673 161.963C489.774 164.053 488.614 166.699 488.369 169.5C488.352 169.762 488.439 170.02 488.611 170.22C488.783 170.42 489.027 170.546 489.29 170.571C489.554 170.583 489.812 170.495 490.013 170.326C490.213 170.156 490.342 169.918 490.372 169.658C490.568 167.299 491.531 165.065 493.115 163.292C494.743 161.655 496.647 160.312 498.742 159.325C499.741 158.691 500.87 158.285 502.046 158.135C502.858 158.142 503.66 158.304 504.409 158.611C506.301 159.19 507.929 160.403 509.015 162.042C509.695 163.507 510.011 165.112 509.936 166.723C510.032 168.556 509.864 170.392 509.436 172.177C508.995 173.914 508.21 175.546 507.127 176.979C506.044 178.412 504.684 179.618 503.126 180.526C501.569 181.434 499.844 182.026 498.053 182.268C496.263 182.51 494.441 182.397 492.695 181.935C492.44 181.868 492.169 181.904 491.94 182.034C491.711 182.164 491.543 182.378 491.473 182.629C491.44 182.756 491.432 182.887 491.451 183.017C491.469 183.146 491.513 183.27 491.58 183.383C491.647 183.495 491.736 183.593 491.841 183.672C491.946 183.75 492.066 183.807 492.194 183.839C493.486 184.193 494.819 184.373 496.159 184.375Z" fill="#231F20"/>
<path d="M464.119 161.705C464.119 161.705 456.249 177.076 458.832 179.278C461.415 181.479 467.623 179.059 467.623 179.059" fill="white"/>
<path d="M462.056 181.202C464.114 181.139 466.145 180.73 468.064 179.992C468.186 179.944 468.298 179.872 468.392 179.781C468.487 179.69 468.562 179.582 468.614 179.462C468.666 179.343 468.694 179.214 468.696 179.083C468.697 178.953 468.673 178.824 468.625 178.703C468.522 178.461 468.33 178.268 468.087 178.165C467.844 178.061 467.57 178.055 467.323 178.147C465.861 178.703 461.315 179.992 459.573 178.524C458.512 177.651 461.155 169.837 465.08 162.142C465.142 162.026 465.179 161.9 465.19 161.77C465.201 161.64 465.186 161.509 465.145 161.385C465.104 161.261 465.038 161.146 464.951 161.048C464.864 160.95 464.758 160.87 464.64 160.813C464.402 160.7 464.13 160.683 463.88 160.764C463.63 160.846 463.422 161.019 463.298 161.249C460.835 166.089 455.388 177.592 458.252 180.031C459.349 180.839 460.691 181.251 462.056 181.202Z" fill="#231F20"/>
<path d="M473.895 158.231C473.744 156.397 474.694 154.824 476.017 154.717C477.34 154.61 478.534 156.01 478.685 157.844C478.836 159.679 477.886 161.252 476.563 161.359C475.241 161.466 474.046 160.065 473.895 158.231Z" fill="#231F20"/>
<path d="M449.086 161.626C448.948 159.791 449.909 158.224 451.232 158.127C452.556 158.029 453.741 159.437 453.879 161.273C454.017 163.108 453.056 164.675 451.732 164.772C450.409 164.87 449.224 163.461 449.086 161.626Z" fill="#231F20"/>
<path d="M466.162 193.498C469.224 193.551 472.253 192.871 474.993 191.515C479.779 189.036 482.842 184.296 484.104 177.433C484.127 177.304 484.124 177.172 484.095 177.044C484.066 176.916 484.012 176.795 483.936 176.689C483.859 176.582 483.762 176.491 483.65 176.421C483.538 176.351 483.413 176.304 483.283 176.283C483.023 176.242 482.758 176.301 482.542 176.449C482.325 176.597 482.175 176.821 482.121 177.076C481 183.304 478.277 187.568 474.111 189.75C465.701 194.113 453.866 188.837 453.746 188.778C453.504 188.671 453.23 188.662 452.982 188.755C452.734 188.848 452.534 189.035 452.424 189.274C452.368 189.392 452.336 189.52 452.331 189.651C452.326 189.781 452.347 189.911 452.394 190.034C452.44 190.156 452.512 190.267 452.603 190.362C452.694 190.456 452.804 190.531 452.925 190.583C457.107 192.387 461.601 193.377 466.162 193.498Z" fill="#231F20"/>
<path d="M546.161 210.158C583.148 205.596 617.871 361.11 597.686 375.886C566.206 398.952 470.127 367.456 470.127 367.456L479.739 326.421C479.739 326.421 549.085 329.694 550.347 315.592C551.608 301.491 511.598 235.386 517.205 225.747C522.812 216.108 546.161 210.158 546.161 210.158Z" fill="#00ADB5"/>
<path d="M417.02 327.572C417.241 327.578 417.456 327.502 417.623 327.359C417.79 327.215 417.896 327.015 417.921 326.798C422.687 293.637 433.14 238.103 436.524 234.851C436.689 234.68 436.781 234.453 436.78 234.217C436.779 233.981 436.686 233.754 436.52 233.585C436.354 233.416 436.128 233.316 435.89 233.308C435.652 233.3 435.42 233.384 435.243 233.542C430.897 237.727 419.723 301.431 416.119 326.54C416.084 326.779 416.147 327.022 416.294 327.216C416.44 327.409 416.658 327.537 416.9 327.572H417.02Z" fill="#231F20"/>
<path d="M452.404 406.032L516.244 388.321L398.997 366.485L335.538 392.823L452.404 406.032Z" fill="white"/>
<path d="M452.404 407.083C452.49 407.102 452.579 407.102 452.664 407.083L516.504 389.233C516.77 389.233 517.024 389.129 517.212 388.943C517.4 388.757 517.505 388.505 517.505 388.242C517.505 387.979 517.4 387.726 517.212 387.54C517.024 387.354 516.77 387.25 516.504 387.25L399.258 365.433C399.076 365.374 398.879 365.374 398.697 365.433L335.238 391.772C335.035 391.857 334.866 392.006 334.757 392.197C334.649 392.387 334.606 392.607 334.637 392.823C334.667 393.042 334.77 393.245 334.93 393.4C335.089 393.554 335.296 393.651 335.518 393.676L452.284 407.083H452.404ZM511.838 388.579L452.324 405.1L339.463 392.347L399.118 367.595L511.838 388.579Z" fill="#231F20"/>
<path d="M490.072 340.602C476.054 342.129 463.058 343.121 450.022 348.535C442.572 351.634 435.537 355.631 429.075 360.435C425.783 362.749 422.707 365.351 419.884 368.21C417.641 370.63 418.362 372.99 422.127 371.82C426.505 370.461 430.65 368.455 434.422 365.87C425.402 373.158 417.408 381.609 410.652 390.998C409.892 392.069 409.151 393.597 410.052 394.549C410.953 395.501 412.955 394.549 414.057 393.557L433.861 374.953C428.619 379.433 424.16 384.741 420.665 390.661C420.164 391.514 419.684 392.645 420.204 393.418C421.085 394.866 423.328 393.775 424.53 392.565C430.462 386.633 435.856 380.195 440.65 373.327L429.957 389.194C430.058 389.486 430.217 389.756 430.424 389.988C430.631 390.219 430.882 390.408 431.163 390.542C431.445 390.677 431.75 390.755 432.062 390.772C432.374 390.789 432.686 390.745 432.98 390.642C434.158 390.16 435.177 389.363 435.924 388.341L448.88 373.605L441.231 384.037C440.029 385.663 438.828 388.004 440.209 389.531C441.591 391.058 444.715 389.531 446.477 387.984C453.565 381.578 461.349 375.97 469.686 371.264C472.71 369.499 475.293 367.099 478.637 366.088C483.443 364.62 489.451 364.819 494.457 364.263" fill="white"/>
<path d="M411.012 395.897C412.35 395.748 413.595 395.145 414.537 394.192L420.945 388.242C420.524 388.896 420.104 389.571 419.723 390.225C419.318 390.742 419.061 391.357 418.98 392.007C418.899 392.656 418.996 393.315 419.262 393.914C419.442 394.22 419.691 394.479 419.99 394.672C420.289 394.865 420.63 394.986 420.985 395.025C421.742 395.015 422.489 394.85 423.179 394.539C423.868 394.228 424.485 393.779 424.99 393.22C426.311 391.911 427.593 390.582 428.854 389.253C428.845 389.326 428.845 389.399 428.854 389.471C428.93 389.838 429.084 390.185 429.305 390.49C429.526 390.794 429.809 391.048 430.136 391.236C430.568 391.493 431.049 391.658 431.548 391.723C432.048 391.788 432.555 391.75 433.04 391.613C434.387 391.09 435.554 390.195 436.404 389.035L438.767 386.358C438.472 387.004 438.368 387.719 438.467 388.421C438.567 389.123 438.865 389.783 439.328 390.324C439.616 390.644 439.967 390.902 440.36 391.083C440.752 391.263 441.178 391.363 441.61 391.375C443.702 391.149 445.638 390.176 447.057 388.638C454.076 382.267 461.801 376.704 470.086 372.058C471.107 371.463 472.088 370.788 473.05 370.074C474.799 368.723 476.752 367.652 478.837 366.901C482.329 366.026 485.909 365.547 489.51 365.473C491.232 365.374 492.914 365.275 494.496 365.116C494.738 365.086 494.957 364.963 495.107 364.774C495.257 364.584 495.326 364.344 495.297 364.105C495.285 363.987 495.249 363.873 495.192 363.769C495.135 363.666 495.057 363.574 494.964 363.501C494.871 363.427 494.764 363.372 494.649 363.34C494.535 363.307 494.415 363.297 494.296 363.311C492.734 363.47 491.092 363.569 489.41 363.668C485.66 363.739 481.931 364.238 478.296 365.156C476.039 365.973 473.919 367.123 472.008 368.567C471.087 369.222 470.146 369.856 469.165 370.431C460.767 375.158 452.928 380.799 445.796 387.25C444.712 388.341 443.312 389.069 441.791 389.333C441.604 389.326 441.422 389.282 441.253 389.204C441.084 389.125 440.933 389.014 440.809 388.876C439.728 387.706 441.21 385.425 441.891 384.493L449.54 374.081C449.612 373.99 449.664 373.886 449.695 373.774C449.726 373.663 449.734 373.547 449.719 373.433C449.704 373.318 449.667 373.208 449.608 373.108C449.55 373.008 449.473 372.921 449.38 372.851C449.212 372.687 448.985 372.596 448.749 372.596C448.513 372.596 448.287 372.687 448.119 372.851L435.142 387.587C434.509 388.465 433.643 389.151 432.639 389.57C432.402 389.636 432.154 389.654 431.91 389.624C431.666 389.593 431.43 389.514 431.217 389.392C431.09 389.326 430.98 389.231 430.897 389.114L441.33 373.585C441.465 373.388 441.516 373.145 441.471 372.911C441.426 372.676 441.289 372.469 441.09 372.335C440.891 372.201 440.646 372.151 440.409 372.196C440.173 372.24 439.964 372.376 439.828 372.573C435.056 379.393 429.696 385.79 423.808 391.693C423.156 392.402 422.267 392.852 421.305 392.962C421.226 392.96 421.149 392.937 421.082 392.895C421.015 392.853 420.961 392.794 420.925 392.724C420.704 392.387 420.925 391.752 421.385 390.88C423.796 386.794 426.679 383 429.976 379.575L434.441 375.37C434.586 375.2 434.663 374.983 434.657 374.761C434.652 374.539 434.565 374.326 434.413 374.163C434.26 374 434.053 373.897 433.83 373.875C433.606 373.852 433.382 373.911 433.2 374.041C431.618 375.39 430.116 376.798 428.674 378.285L413.375 392.664C412.781 393.334 411.964 393.77 411.072 393.894C410.991 393.897 410.911 393.881 410.837 393.846C410.764 393.812 410.7 393.76 410.652 393.696C410.191 393.22 410.652 392.149 411.313 391.276C418.019 381.956 425.952 373.565 434.902 366.326C435.066 366.172 435.167 365.963 435.185 365.74C435.204 365.517 435.139 365.294 435.003 365.116C434.867 364.937 434.669 364.814 434.448 364.77C434.226 364.726 433.996 364.765 433.801 364.878C430.119 367.416 426.067 369.383 421.786 370.709C420.384 371.145 419.643 370.967 419.503 370.709C419.363 370.451 419.503 369.579 420.484 368.547C423.263 365.723 426.299 363.161 429.555 360.892C435.954 356.137 442.922 352.187 450.301 349.13C462.056 344.271 473.811 343.022 486.346 341.693L490.251 341.256C490.37 341.244 490.485 341.209 490.589 341.152C490.694 341.095 490.786 341.019 490.861 340.926C490.935 340.834 490.991 340.728 491.023 340.615C491.056 340.501 491.066 340.382 491.052 340.265C491.04 340.147 491.004 340.033 490.947 339.93C490.889 339.826 490.812 339.735 490.719 339.661C490.626 339.587 490.519 339.532 490.404 339.5C490.289 339.467 490.169 339.458 490.051 339.472L486.046 339.888C473.45 341.237 461.575 342.506 449.58 347.464C442.062 350.549 434.958 354.546 428.434 359.364C425.087 361.723 421.963 364.378 419.102 367.298C417.66 368.845 417.22 370.531 417.941 371.661C418.361 372.296 419.483 373.248 422.306 372.375C423.936 371.882 425.534 371.292 427.092 370.61C420.69 376.543 414.901 383.094 409.811 390.166C408.429 392.149 408.249 393.755 409.27 394.866C409.489 395.104 409.754 395.296 410.05 395.429C410.346 395.562 410.667 395.634 410.992 395.639L411.012 395.897Z" fill="#231F20"/>
<path d="M335.538 392.823L306.322 315.374L425.651 317.714L452.404 406.032L335.538 392.823Z" fill="white"/>
<path d="M452.404 407.083C452.55 407.085 452.694 407.054 452.826 406.992C452.958 406.93 453.074 406.839 453.165 406.726C453.27 406.601 453.343 406.453 453.378 406.294C453.412 406.136 453.408 405.971 453.365 405.814L426.612 317.496C426.547 317.296 426.422 317.121 426.254 316.994C426.086 316.866 425.882 316.792 425.671 316.782L306.342 314.442C306.178 314.439 306.016 314.476 305.87 314.548C305.723 314.621 305.597 314.727 305.5 314.858C305.413 314.992 305.357 315.143 305.336 315.301C305.316 315.459 305.331 315.619 305.38 315.771L334.597 393.121C334.662 393.296 334.775 393.45 334.924 393.566C335.072 393.681 335.25 393.754 335.438 393.775L452.284 407.083H452.404ZM424.889 318.746L450.922 404.941L336.179 391.97L307.703 316.445L424.889 318.746Z" fill="#231F20"/>
<path d="M341.906 393.537C341.906 393.537 309.526 419.578 320.9 443.458C332.274 467.337 539.173 494.628 539.173 494.628L548.484 463.41C548.484 463.41 386.182 381.3 341.906 393.537Z" fill="#393E46"/>
<path d="M539.173 495.619C539.389 495.616 539.598 495.545 539.771 495.417C539.943 495.289 540.07 495.11 540.134 494.905L549.446 463.688C549.517 463.468 549.505 463.231 549.413 463.019C549.321 462.808 549.155 462.637 548.945 462.537C548.544 462.319 507.834 441.792 462.217 422.99C400.84 397.702 360.289 387.468 341.706 392.585C341.566 392.623 341.437 392.691 341.326 392.784C335.675 397.538 330.656 402.983 326.387 408.987C317.456 421.72 315.293 433.779 320.139 443.894C331.714 467.972 530.582 494.489 539.033 495.6L539.173 495.619ZM547.303 463.886L538.452 493.477C523.994 491.494 332.695 465.354 321.942 443.002C311.368 420.947 339.964 396.413 342.447 394.41C384.54 383.283 535.168 457.936 547.183 463.926L547.303 463.886Z" fill="#231F20"/>
<path d="M559.198 381.578C559.198 381.578 398.537 445.917 358.708 462.894L381.856 498.317C381.856 498.317 530.202 495.441 572.735 458.531C615.268 421.621 612.444 360.177 559.198 381.578Z" fill="#393E46"/>
<path d="M381.856 499.348C382.217 499.348 419.483 498.575 461.456 493.299C517.926 486.179 555.573 474.755 573.375 459.304C595.643 439.987 611.243 406.072 598.987 386.377C594.982 379.832 584.289 370.411 558.777 380.645C557.175 381.3 397.656 445.203 358.267 461.962C358.133 462.016 358.012 462.1 357.915 462.206C357.818 462.312 357.747 462.439 357.706 462.577C357.666 462.716 357.656 462.863 357.676 463.006C357.697 463.15 357.748 463.287 357.826 463.41L380.975 498.892C381.069 499.037 381.2 499.156 381.354 499.236C381.509 499.316 381.682 499.355 381.856 499.348ZM578.922 378.127C587.152 378.127 593.46 381.26 597.305 387.409C606.757 402.621 598.887 434.552 572.074 457.817C531.603 492.942 392.389 497.107 382.397 497.345L360.169 463.331C401.3 445.877 557.956 383.125 559.558 382.49C565.674 379.83 572.246 378.349 578.922 378.127Z" fill="#231F20"/>
<path d="M334.918 361.903C334.745 362.818 334.346 363.677 333.756 364.402L330.632 369.023C330.747 368.546 330.965 368.099 331.273 367.714C331.58 367.33 331.969 367.016 332.412 366.797C332.855 366.578 333.342 366.457 333.837 366.444C334.332 366.431 334.824 366.526 335.278 366.723C336.165 367.198 336.902 367.907 337.408 368.772C337.913 369.636 338.167 370.623 338.142 371.621C338.052 373.616 337.576 375.576 336.74 377.393C334.517 383.105 329.491 391.455 322.222 387.131C317.296 384.196 315.934 373.843 315.233 368.686C313.852 358.531 316.995 345.481 330.172 347.464C329.792 352.465 327.909 357.238 324.765 361.169C326.908 359.107 335.579 355.913 334.918 361.903Z" fill="white"/>
<path d="M326.247 389.233C327.052 389.239 327.851 389.105 328.609 388.837C333.355 387.23 336.319 381.181 337.661 377.71C338.534 375.784 339.031 373.711 339.123 371.602C339.155 370.429 338.851 369.271 338.245 368.263C337.638 367.255 336.755 366.439 335.698 365.909C335.208 365.688 334.675 365.573 334.136 365.572L334.577 364.918C335.261 364.065 335.715 363.056 335.899 361.982C336.058 361.195 335.948 360.377 335.585 359.659C335.222 358.94 334.628 358.362 333.896 358.016C331.843 357.388 329.626 357.551 327.688 358.472C329.612 355.142 330.762 351.429 331.053 347.603C331.066 347.374 330.993 347.149 330.849 346.97C330.705 346.79 330.5 346.67 330.272 346.631C328.268 346.197 326.187 346.252 324.209 346.791C322.231 347.33 320.415 348.337 318.917 349.725C314.211 354.327 313.431 362.617 314.292 368.865C315.073 374.577 316.474 384.83 321.721 387.964C323.078 388.802 324.647 389.242 326.247 389.233ZM334.016 367.417C334.339 367.412 334.659 367.473 334.957 367.595C335.686 367.999 336.288 368.594 336.698 369.315C337.108 370.036 337.309 370.854 337.28 371.681C337.201 373.56 336.752 375.406 335.959 377.115C334.957 379.654 332.194 385.743 327.949 387.171C327.073 387.448 326.144 387.523 325.235 387.389C324.325 387.254 323.458 386.915 322.702 386.397C318.196 383.72 316.835 373.644 316.174 368.805C315.353 362.855 316.014 355.12 320.179 350.955C321.361 349.853 322.783 349.035 324.335 348.564C325.887 348.093 327.528 347.981 329.13 348.238C328.615 352.752 326.832 357.033 323.984 360.594C323.837 360.772 323.766 361 323.785 361.229C323.803 361.458 323.911 361.671 324.084 361.824C324.255 361.983 324.48 362.071 324.715 362.071C324.949 362.071 325.175 361.983 325.345 361.824C326.687 360.515 331.113 358.65 333.095 359.602C333.536 359.801 334.096 360.257 333.956 361.804C333.781 362.569 333.439 363.286 332.955 363.906L331.273 366.366C330.832 366.649 330.46 367.025 330.183 367.467C329.906 367.909 329.731 368.407 329.671 368.924C329.649 369.126 329.697 369.33 329.806 369.502C329.915 369.675 330.079 369.806 330.272 369.876C330.463 369.944 330.672 369.946 330.865 369.881C331.058 369.816 331.223 369.688 331.333 369.519L332.574 367.694C333.022 367.479 333.519 367.384 334.016 367.417Z" fill="#231F20"/>
<path d="M380.034 455.556C380.16 455.575 380.288 455.575 380.414 455.556C383.918 454.207 466.742 422.454 485.405 411.129C485.637 410.986 485.803 410.758 485.867 410.494C485.931 410.231 485.887 409.953 485.746 409.721C485.676 409.605 485.583 409.504 485.474 409.425C485.364 409.345 485.239 409.287 485.106 409.256C484.974 409.224 484.837 409.22 484.702 409.242C484.568 409.264 484.439 409.312 484.324 409.384C465.821 420.61 380.534 453.315 379.673 453.632C379.416 453.73 379.208 453.925 379.096 454.174C378.983 454.423 378.975 454.706 379.072 454.961C379.155 455.143 379.291 455.297 379.462 455.403C379.633 455.509 379.832 455.562 380.034 455.556Z" fill="white"/>
<path d="M476.634 326.044C458.375 326.044 443.573 312.165 443.573 295.045C443.573 277.924 458.375 264.045 476.634 264.045C494.893 264.045 509.695 277.924 509.695 295.045C509.695 312.165 494.893 326.044 476.634 326.044Z" fill="#231F20"/>
<path d="M476.634 327.016C495.418 327.016 510.677 312.677 510.677 295.045C510.677 277.413 495.398 263.054 476.634 263.054C457.871 263.054 442.592 277.413 442.592 295.045C442.592 312.677 457.851 327.016 476.634 327.016ZM476.634 265.037C494.316 265.037 508.674 278.504 508.674 295.045C508.674 311.586 494.296 325.033 476.634 325.033C458.972 325.033 444.594 311.586 444.594 295.045C444.594 278.504 458.952 265.037 476.634 265.037Z" fill="#231F20"/>
<path d="M494.076 305.12L502.086 300.479V294.351L494.076 289.71C491.406 288.189 488.736 286.642 486.066 285.069V292.486C487.488 293.359 488.909 294.212 490.331 295.025C491.753 295.838 493.155 296.671 494.597 297.564L490.331 299.904L486.066 302.264V309.761L494.076 305.12Z" fill="white"/>
<path d="M483.804 311.725L474.372 276.183L469.446 278.385L478.918 313.867L483.804 311.725Z" fill="white"/>
<path d="M459.073 289.71L451.062 294.351V300.479L459.073 305.12L467.083 309.761V302.264L462.817 299.904L458.552 297.564C459.974 296.671 461.395 295.818 462.817 295.025C464.239 294.232 465.641 293.359 467.083 292.486V285.069L459.073 289.71Z" fill="white"/>
<path d="M545.18 381.3C545.445 381.316 545.706 381.226 545.905 381.052C546.104 380.877 546.225 380.631 546.241 380.368C546.257 380.105 546.167 379.846 545.99 379.649C545.814 379.452 545.565 379.332 545.3 379.317L497.24 373.545L489.61 335.445L551.187 330.289C551.334 330.279 551.477 330.236 551.606 330.164C551.734 330.092 551.844 329.992 551.928 329.872C552.018 329.755 552.079 329.619 552.107 329.474C552.135 329.33 552.128 329.181 552.088 329.039L526.777 235.703C526.708 235.44 526.536 235.215 526.299 235.078C526.063 234.94 525.781 234.901 525.515 234.97C525.25 235.038 525.022 235.208 524.883 235.442C524.744 235.677 524.705 235.956 524.774 236.219L549.785 328.424L488.369 333.462C488.228 333.477 488.092 333.52 487.968 333.588C487.844 333.656 487.735 333.748 487.648 333.859C487.564 333.971 487.505 334.1 487.474 334.237C487.443 334.373 487.441 334.515 487.468 334.652L495.478 374.537C495.521 374.741 495.627 374.927 495.781 375.069C495.935 375.211 496.13 375.302 496.339 375.33L545.18 381.181V381.3Z" fill="#231F20"/>
<path d="M280.529 111.963H380.374V122.197H280.529V111.963Z" fill="#E6E7E8"/>
<path d="M169.07 111.963H268.915V122.197H169.07V111.963Z" fill="#E6E7E8"/>
<path d="M280.529 129.496H339.143V139.73H280.529V129.496Z" fill="#00ADB5"/>
<path d="M180.224 129.496H268.915V139.73H180.224V129.496Z" fill="#E6E7E8"/>
<path d="M280.53 147.048H354.402V157.283H280.53V147.048Z" fill="#E6E7E8"/>
<path d="M227.263 147.048H268.915V157.283H227.263V147.048Z" fill="#E6E7E8"/>
<path d="M280.51 164.581H323.604V174.815H280.51V164.581Z" fill="#E6E7E8"/>
<path d="M187.333 164.581H268.915V174.815H187.333V164.581Z" fill="#00ADB5"/>
<path d="M280.529 182.134H294.247V192.368H280.529V182.134Z" fill="#00ADB5"/>
<path d="M214.107 182.134H268.915V192.368H214.107V182.134Z" fill="#E6E7E8"/>
<path d="M282.252 254.248H374.006V265.969H282.252V254.248Z" fill="#00ADB5"/>
<path d="M211.163 254.248H267.514V265.969H211.163V254.248Z" fill="#E6E7E8"/>
<path d="M282.272 274.319H356.765V286.04H282.272V274.319Z" fill="#E6E7E8"/>
<path d="M185.471 274.319H267.514V286.04H185.471V274.319Z" fill="#E6E7E8"/>
<path d="M282.272 294.41H319.518V306.132H282.272V294.41Z" fill="#E6E7E8"/>
<path d="M169.952 294.41H267.514V306.132H169.952V294.41Z" fill="#E6E7E8"/>
<path d="M282.272 314.501H296.229V326.223H282.272V314.501Z" fill="#E6E7E8"/>
<path d="M163.824 314.501H267.514V326.223H163.824V314.501Z" fill="#00ADB5"/>
<path d="M197.867 334.573H267.514V346.294H197.867V334.573Z" fill="#E6E7E8"/>
<path d="M232.209 228.821L239.739 225.846V221.88L232.209 218.905L224.68 215.93V220.65C226.042 221.225 227.383 221.761 228.685 222.276C229.987 222.792 231.368 223.328 232.69 223.903L228.685 225.41L224.68 226.917V231.717L232.209 228.821Z" fill="#E6E7E8"/>
<path d="M222.457 233.046L213.526 210.297L208.84 211.685L217.831 234.533L222.457 233.046Z" fill="#E6E7E8"/>
<path d="M199.108 218.964C196.605 219.956 194.082 220.948 191.578 221.939V225.906L199.108 228.881L206.637 231.856V226.997L202.632 225.489L198.627 223.982C199.989 223.407 201.331 222.871 202.632 222.356C203.934 221.84 205.316 221.304 206.637 220.729V215.989L199.108 218.964Z" fill="#E6E7E8"/>
<path d="M377.751 87.5683C377.754 87.1086 377.651 86.6542 377.451 86.2395C377.276 85.817 377.009 85.4379 376.67 85.1288C376.337 84.8236 375.95 84.5816 375.529 84.4148C375.077 84.2315 374.594 84.1371 374.107 84.1372C373.645 84.1413 373.189 84.2357 372.765 84.4148C372.352 84.5863 371.973 84.828 371.644 85.1288C371.323 85.4496 371.065 85.8261 370.883 86.2395C370.698 86.6585 370.602 87.111 370.602 87.5683C370.602 88.0321 370.698 88.491 370.883 88.917C371.071 89.3097 371.329 89.6657 371.644 89.9682C372.314 90.5876 373.191 90.9407 374.107 90.9598C374.594 90.9598 375.077 90.8655 375.529 90.6822C375.954 90.523 376.342 90.2801 376.67 89.9682C377.003 89.6772 377.27 89.3187 377.451 88.917C377.652 88.4954 377.754 88.0345 377.751 87.5683ZM377.751 99.1907C377.742 98.7365 377.641 98.2888 377.456 97.8734C377.27 97.4581 377.003 97.0833 376.67 96.771C376.343 96.4528 375.955 96.2032 375.529 96.0372C375.076 95.8606 374.593 95.773 374.107 95.7793C373.647 95.7767 373.191 95.8643 372.765 96.0372C372.347 96.2083 371.966 96.4574 371.644 96.771C371.323 97.0844 371.065 97.4543 370.883 97.8618C370.698 98.2845 370.603 98.7401 370.603 99.2006C370.603 99.6611 370.698 100.117 370.883 100.539C371.065 100.941 371.324 101.304 371.644 101.61C371.973 101.911 372.352 102.153 372.765 102.324C373.191 102.497 373.647 102.585 374.107 102.582C374.593 102.588 375.076 102.501 375.529 102.324C375.95 102.158 376.337 101.916 376.67 101.61C377.008 101.316 377.275 100.95 377.451 100.539C377.654 100.118 377.756 99.657 377.751 99.1907Z" fill="#E6E7E8"/>
<path d="M260.825 421.284C260.033 421.325 259.251 421.101 258.602 420.649C258.042 420.233 257.781 419.36 257.781 418.011V411.863C257.783 410.845 257.648 409.831 257.381 408.848C257.132 407.933 256.71 407.071 256.139 406.31C255.557 405.578 254.818 404.982 253.977 404.564C252.975 404.102 251.878 403.878 250.773 403.91H246.267V410.296H247.849C248.21 410.261 248.574 410.324 248.902 410.477C249.23 410.631 249.51 410.87 249.711 411.169C250.058 411.773 250.231 412.458 250.212 413.152V419.42C250.189 420.214 250.333 421.004 250.633 421.74C250.873 422.309 251.212 422.833 251.634 423.287C252.002 423.679 252.444 423.996 252.935 424.219C253.327 424.424 253.756 424.552 254.197 424.596C253.761 424.676 253.338 424.809 252.935 424.993C252.446 425.202 252.003 425.505 251.634 425.885C250.67 426.942 250.16 428.33 250.212 429.753V436.04C250.237 436.735 250.064 437.422 249.711 438.023C249.512 438.326 249.234 438.569 248.906 438.726C248.577 438.884 248.212 438.949 247.849 438.916H246.267V445.302H250.773C251.878 445.334 252.975 445.11 253.977 444.648C254.818 444.23 255.557 443.634 256.139 442.902C256.706 442.138 257.127 441.278 257.381 440.364C257.647 439.374 257.782 438.354 257.781 437.329V431.181C257.712 430.711 257.75 430.233 257.892 429.779C258.034 429.326 258.277 428.911 258.602 428.563C259.251 428.111 260.033 427.888 260.825 427.928V421.284Z" fill="#E6E7E8"/>
<path d="M191.659 427.888C192.457 427.848 193.246 428.071 193.901 428.523C194.224 428.873 194.464 429.289 194.606 429.742C194.748 430.194 194.788 430.672 194.722 431.141V437.289C194.722 438.314 194.857 439.334 195.123 440.324C195.368 441.241 195.79 442.103 196.365 442.863C196.937 443.604 197.678 444.202 198.527 444.608C199.529 445.071 200.626 445.295 201.731 445.262H206.237V438.817H204.635C204.275 438.846 203.914 438.779 203.59 438.622C203.265 438.465 202.99 438.224 202.793 437.924C202.44 437.323 202.267 436.635 202.292 435.941V429.654C202.312 428.866 202.169 428.083 201.871 427.353C201.627 426.775 201.281 426.245 200.85 425.786C200.486 425.408 200.051 425.105 199.569 424.894C199.158 424.712 198.728 424.579 198.287 424.497C198.734 424.451 199.168 424.323 199.569 424.12C200.054 423.897 200.49 423.58 200.85 423.188C201.285 422.74 201.631 422.215 201.871 421.641C202.171 420.904 202.314 420.114 202.292 419.32V413.033C202.273 412.339 202.446 411.654 202.793 411.05C202.992 410.754 203.269 410.517 203.593 410.364C203.917 410.21 204.277 410.146 204.635 410.177H206.237V403.91H201.731C200.626 403.878 199.529 404.102 198.527 404.564C197.678 404.97 196.937 405.568 196.365 406.31C195.786 407.067 195.364 407.929 195.123 408.848C194.856 409.831 194.721 410.845 194.722 411.863V418.011C194.789 418.484 194.75 418.965 194.609 419.421C194.467 419.877 194.225 420.296 193.901 420.649C193.246 421.101 192.457 421.324 191.659 421.284V427.888Z" fill="#E6E7E8"/>
</svg>
