<svg width="60" height="86" viewBox="0 0 60 86" fill="none" xmlns="http://www.w3.org/2000/svg">
<g clip-path="url(#clip0)">
<path d="M59.8957 16.8022L54.4485 78.6209L29.9634 85.4977L5.54574 78.6306L0.10437 16.8022H59.8957Z" fill="#EEEEEE"/>
<path d="M30 80.2414L49.7852 74.6846L54.4401 21.8577H30V80.2414Z" fill="#EEEEEE"/>
<path d="M19.411 37.0239H30V29.4408H11.2306L11.4098 31.4752L13.2495 52.3719H30V44.789H20.0951L19.411 37.0239Z" fill="#393E46"/>
<path d="M21.0979 56.1636H13.5839L14.6325 68.07L29.9655 72.3821L30 72.3724V64.4829L29.9672 64.4918L21.6308 62.2114L21.0979 56.1636Z" fill="#393E46"/>
<path d="M5.66736 0H9.47126V3.80732H12.9509V0H16.755V11.5295H12.9511V7.66874H9.47142V11.5295H5.66752V0H5.66736Z" fill="#EEEEEE"/>
<path d="M21.7572 3.82335H18.4084V0H28.9117V3.82335H25.5615V11.5295H21.7574V3.82335H21.7572Z" fill="#EEEEEE"/>
<path d="M30.5789 0H34.5453L36.9852 4.05112L39.4226 0H43.3905V11.5295H39.6023V5.81485L36.9852 9.91423H36.9197L34.3008 5.81485V11.5295H30.5789V0Z" fill="#EEEEEE"/>
<path d="M45.2836 0H49.0886V7.71851H54.438V11.5295H45.2836V0Z" fill="#EEEEEE"/>
<path d="M29.9741 52.3718H39.1914L38.3225 62.2064L29.9741 64.4891V72.3783L45.3193 68.0699L45.4319 66.7887L47.1908 46.8252L47.3735 44.7889H29.9741V52.3718Z" fill="#393E46"/>
<path d="M29.9741 37.0053V37.0239H48.0546L48.2047 35.3194L48.5458 31.4752L48.7248 29.4408H29.9741V37.0053Z" fill="#393E46"/>
</g>
<defs>
<clipPath id="clip0">
<rect width="60" height="85.7143" fill="white"/>
</clipPath>
</defs>
</svg>
