<svg width="60" height="61" viewBox="0 0 60 61" fill="none" xmlns="http://www.w3.org/2000/svg">
<g clip-path="url(#clip0)">
<path d="M0 0.714355H60V60.7144H0V0.714355Z" fill="#EEEEEE"/>
<path d="M15.7762 50.8547L20.3678 48.0759C21.2536 49.6465 22.0595 50.9754 23.9923 50.9754C25.8451 50.9754 27.0132 50.2506 27.0132 47.4316V28.2601H32.6516V47.5113C32.6516 53.3513 29.2284 56.0095 24.234 56.0095C19.7235 56.0095 17.1052 53.6734 15.7761 50.8542" fill="#393E46"/>
<path d="M35.7142 50.2505L40.3053 47.5923C41.5139 49.566 43.0846 51.0158 45.8635 51.0158C48.1998 51.0158 49.6896 49.8477 49.6896 48.2367C49.6896 46.3035 48.1592 45.6187 45.5815 44.4914L44.1722 43.8868C40.1041 42.1553 37.4056 39.9804 37.4056 35.3889C37.4056 31.1599 40.6276 27.9377 45.6622 27.9377C49.2468 27.9377 51.8244 29.1864 53.6769 32.4488L49.2868 35.2679C48.3201 33.5362 47.2733 32.8516 45.6623 32.8516C44.011 32.8516 42.9638 33.8988 42.9638 35.2679C42.9638 36.9596 44.011 37.6444 46.4273 38.6916L47.8368 39.2957C52.6297 41.3499 55.3282 43.444 55.3282 48.1561C55.3282 53.2312 51.341 56.0099 45.9844 56.0099C40.7486 56.0099 37.3654 53.513 35.7143 50.2505" fill="#393E46"/>
</g>
<defs>
<clipPath id="clip0">
<rect width="60" height="60" fill="white" transform="translate(0 0.714355)"/>
</clipPath>
</defs>
</svg>
