<svg width="40" height="40" viewBox="0 0 40 40" fill="none" xmlns="http://www.w3.org/2000/svg">
<path d="M20 0.800003C9.39605 0.800003 0.800049 9.396 0.800049 20C0.800049 30.604 9.39605 39.2 20 39.2C30.604 39.2 39.2001 30.604 39.2001 20C39.2001 9.396 30.604 0.800003 20 0.800003ZM15.3 27.958H11.412V15.446H15.3V27.958ZM13.332 13.91C12.104 13.91 11.31 13.04 11.31 11.964C11.31 10.866 12.128 10.022 13.382 10.022C14.636 10.022 15.404 10.866 15.428 11.964C15.428 13.04 14.636 13.91 13.332 13.91ZM29.5 27.958H25.612V21.024C25.612 19.41 25.048 18.314 23.642 18.314C22.5681 18.314 21.93 19.056 21.6481 19.77C21.5441 20.024 21.518 20.384 21.518 20.742V27.956H17.628V19.436C17.628 17.874 17.578 16.568 17.526 15.444H20.904L21.0821 17.182H21.16C21.672 16.366 22.9261 15.162 25.024 15.162C27.5821 15.162 29.5 16.876 29.5 20.56V27.958Z" fill="#00ADB5"/>
</svg>
