<svg width="26" height="26" viewBox="0 0 26 26" fill="none" xmlns="http://www.w3.org/2000/svg">
<path d="M20.0312 8.46875V3.82031C20.031 3.5614 19.928 3.31318 19.7449 3.13011C19.5618 2.94703 19.3136 2.84405 19.0547 2.84375H6.94531C6.6864 2.84405 6.43818 2.94703 6.25511 3.13011C6.07203 3.31318 5.96905 3.5614 5.96875 3.82031V8.46875L1.28125 11.8167V24.7188H24.7188V11.8167L20.0312 8.46875ZM22.6523 12.2611L20.0312 13.9746V10.3887L22.6523 12.2611ZM7.53125 4.40625H18.4688V14.9962L15.6774 16.8213L13.4031 15.642L10.9244 16.8387L7.53125 14.7786V4.40625ZM13.3781 17.3892L23.1562 22.4593V23.1562H2.84375V22.4748L13.3781 17.3892ZM2.84375 13.7605L9.24727 17.6484L2.84375 20.7397V13.7605ZM17.2698 17.6472L23.1562 13.7982V20.6993L17.2698 17.6472ZM5.96875 10.3887V13.8301L3.36455 12.2488L5.96875 10.3887Z" fill="#EEEEEE"/>
</svg>
