<svg width="60" height="61" viewBox="0 0 60 61" fill="none" xmlns="http://www.w3.org/2000/svg">
<path d="M49.332 20.1416C48.7096 19.9011 48.0647 19.6735 47.4006 19.4582C47.5097 18.9581 47.6099 18.4644 47.699 17.9791C49.1611 10.0104 48.2051 3.59074 44.9408 1.47712C41.8107 -0.549565 36.6917 1.56358 31.5218 6.61535C31.0246 7.10113 30.5261 7.61544 30.0278 8.15446C29.6957 7.79783 29.3642 7.4532 29.0336 7.12355C23.6153 1.72186 18.1844 -0.554481 14.9233 1.56525C11.7962 3.59781 10.8701 9.63289 12.1862 17.1849C12.3133 17.9143 12.4619 18.6592 12.6299 19.4166C11.8612 19.6616 11.1192 19.9228 10.4092 20.2006C4.05687 22.6873 0 26.5845 0 30.627C0 34.8021 4.35506 38.9897 10.9715 41.5289C11.4936 41.7293 12.0354 41.9188 12.5938 42.0986C12.4125 42.9178 12.2549 43.7205 12.1226 44.5034C10.8677 51.9244 11.8477 57.8168 14.9664 59.8366C18.1878 61.9224 23.5942 59.7784 28.8586 54.6115C29.2747 54.2031 29.6923 53.77 30.1106 53.316C30.6529 53.9022 31.1942 54.4571 31.7327 54.9775C36.8319 59.9044 41.8683 61.894 44.9841 59.8686C48.2023 57.7768 49.2482 51.4468 47.8904 43.7454C47.7867 43.1573 47.666 42.5564 47.5304 41.9448C47.9101 41.8188 48.2828 41.6887 48.6463 41.5534C55.5247 38.9945 60 34.8578 60 30.627C60 26.5699 55.8123 22.6464 49.332 20.1416ZM47.8402 38.8216C47.5121 38.9436 47.1754 39.0614 46.8324 39.1757C46.0731 36.4766 45.0482 33.6064 43.7941 30.641C44.9909 27.7463 45.9761 24.9128 46.7142 22.2311C47.328 22.4306 47.9237 22.6409 48.4977 22.8629C54.05 25.009 57.4368 28.182 57.4368 30.627C57.4368 33.2313 53.7792 36.6121 47.8402 38.8216ZM45.3759 44.3044C45.9763 47.7098 46.0621 50.7888 45.6643 53.1957C45.307 55.3585 44.5883 56.8004 43.6998 57.378C41.8089 58.6068 37.7653 57.0095 33.4043 52.7959C32.9044 52.3129 32.4008 51.7971 31.8957 51.2513C33.5863 49.1752 35.276 46.7617 36.9251 44.0812C39.8256 43.7922 42.566 43.3197 45.0511 42.6747C45.1735 43.2291 45.2822 43.7728 45.3759 44.3044ZM20.4554 57.1656C18.6079 57.8981 17.1366 57.9191 16.2471 57.3433C14.3546 56.1177 13.5678 51.3865 14.641 45.0402C14.7639 44.3134 14.9102 43.5668 15.0789 42.8036C17.5367 43.4139 20.257 43.853 23.1645 44.1177C24.8247 46.7406 26.5632 49.1514 28.3151 51.2624C27.9324 51.6773 27.5511 52.0723 27.172 52.4445C24.8441 54.7293 22.5112 56.3503 20.4554 57.1656ZM11.8005 38.8057C8.8748 37.6829 6.45868 36.2237 4.80255 34.6313C3.31441 33.2004 2.56307 31.7797 2.56307 30.627C2.56307 28.1739 5.82034 25.0449 11.2529 22.9183C11.9121 22.6602 12.6021 22.417 13.3182 22.1886C14.069 24.9308 15.0539 27.7978 16.2424 30.697C15.0385 33.6392 14.0396 36.552 13.2814 39.3263C12.7709 39.1616 12.2764 38.9882 11.8005 38.8057ZM14.7017 16.6322C13.5741 10.1618 14.3229 5.28082 16.2074 4.05601C18.2147 2.75121 22.6534 4.61157 27.3316 9.27566C27.6307 9.57377 27.9309 9.88579 28.2319 10.2086C26.4887 12.3103 24.7661 14.7031 23.1206 17.3106C20.2988 17.6042 17.5976 18.076 15.1141 18.7077C14.958 18.0025 14.8197 17.3096 14.7017 16.6322ZM40.5829 23.8078C39.9893 22.6564 39.3797 21.5322 38.7584 20.4387C40.6728 20.7104 42.5069 21.0711 44.2294 21.5125C43.7123 23.3733 43.0677 25.319 42.309 27.3135C41.7648 26.1533 41.1891 24.9836 40.5829 23.8078ZM30.0286 12.2654C31.2109 13.7035 32.3949 15.3092 33.5594 17.0513C32.3859 16.9891 31.1979 16.9567 30 16.9567C28.8135 16.9567 27.6342 16.9883 26.4679 17.0495C27.6336 15.3236 28.8279 13.7201 30.0286 12.2654ZM19.4067 23.8277C18.8136 24.9824 18.2487 26.1458 17.713 27.3113C16.9665 25.3238 16.328 23.3693 15.8064 21.482C17.5183 21.0519 19.3438 20.7002 21.246 20.4336C20.6159 21.5372 20.0014 22.6697 19.4067 23.8275V23.8277ZM21.3008 41.0256C19.3355 40.7795 17.4825 40.4459 15.771 40.0276C16.301 38.1067 16.9536 36.1105 17.7158 34.0801C18.2529 35.2448 18.8202 36.4087 19.4168 37.5659H19.4169C20.0247 38.7447 20.6544 39.8995 21.3008 41.0256ZM30.0995 49.1915C28.8847 47.7198 27.673 46.0918 26.4895 44.3407C27.6383 44.3913 28.8096 44.4172 30 44.4172C31.223 44.4172 32.4319 44.3863 33.6219 44.3268C32.4535 46.1094 31.2738 47.7399 30.0995 49.1915ZM42.3335 33.9766C43.1354 36.0289 43.8115 38.0147 44.3483 39.9029C42.6086 40.3485 40.7303 40.7074 38.7513 40.9741C39.3742 39.8658 39.989 38.7223 40.5932 37.5461C41.2044 36.356 41.7848 35.1642 42.3335 33.9766ZM38.3729 36.1083C37.435 37.9342 36.4721 39.6773 35.4946 41.3227C33.7142 41.4656 31.8748 41.5392 30 41.5392C28.1328 41.5392 26.3166 41.4741 24.5677 41.3467C23.5507 39.6797 22.5669 37.9315 21.635 36.124H21.6352C20.7057 34.3214 19.8502 32.5037 19.0751 30.6961C19.85 28.8843 20.7032 27.0644 21.6274 25.2651L21.6272 25.2655C22.5537 23.4614 23.5289 21.7216 24.5365 20.0651C26.3209 19.9137 28.1507 19.8346 29.9999 19.8346H30C31.8576 19.8346 33.6897 19.9143 35.4736 20.067C36.4657 21.7114 37.4343 23.4455 38.3645 25.2499C39.3053 27.0745 40.1695 28.8822 40.9511 30.6552C40.1719 32.4586 39.3096 34.2845 38.3729 36.1083ZM43.6605 3.97039C45.6697 5.27134 46.451 10.5181 45.1887 17.3982C45.1081 17.8372 45.0175 18.2844 44.919 18.7375C42.4297 18.0926 39.7266 17.6127 36.8966 17.3146C35.2479 14.6785 33.5394 12.282 31.8246 10.2073C32.2856 9.70927 32.746 9.23441 33.2045 8.78629C37.6341 4.45796 41.7742 2.74905 43.6605 3.97039ZM30 24.6112C32.959 24.6112 35.3578 27.3045 35.3578 30.627C35.3578 33.9493 32.959 36.6428 30 36.6428C27.041 36.6428 24.6422 33.9493 24.6422 30.627C24.6422 27.3045 27.041 24.6112 30 24.6112Z" fill="#EEEEEE"/>
</svg>
