<svg width="60" height="60" viewBox="0 0 60 60" fill="none" xmlns="http://www.w3.org/2000/svg">
<path d="M58.8281 0H1.17188C0.524666 0 0 0.639593 0 1.42857V58.3835C0 59.1725 0.524666 59.8121 1.17188 59.8121H58.8281C59.4753 59.8121 60 59.1725 60 58.3835V1.42857C60 0.639593 59.4753 0 58.8281 0Z" fill="#EEEEEE"/>
<path d="M6.61903 6.22102C6.41845 5.97651 6.1764 5.85425 5.89289 5.85425C5.60938 5.85425 5.36638 5.97768 5.16387 6.22455C4.96425 6.46789 4.863 6.76413 4.863 7.10974C4.863 7.45535 4.96425 7.75159 5.16387 7.99493L8.3143 11.8355L5.16676 15.6725C4.96425 15.9193 4.863 16.2156 4.86011 16.5612C4.863 16.9068 4.96425 17.203 5.16387 17.4464C5.36638 17.6897 5.60938 17.8131 5.89 17.8167C6.1764 17.8167 6.41941 17.6932 6.62192 17.4464L10.1224 13.1756C10.8572 12.2833 10.8572 11.3876 10.1224 10.4918L6.61903 6.22102ZM20.3403 15.6795C20.1378 15.4326 19.8919 15.3092 19.6055 15.3092V15.3075H12.8476V15.3092C12.5612 15.3092 12.3182 15.4326 12.1157 15.6795C11.9131 15.9264 11.8119 16.2226 11.8119 16.5718C11.8119 16.9209 11.9131 17.2207 12.1157 17.4675C12.3182 17.7144 12.5612 17.8378 12.8476 17.8378V17.8361H19.6055V17.8378C19.8919 17.8378 20.1378 17.7144 20.3403 17.4675C20.5428 17.2207 20.6441 16.9209 20.6441 16.5718C20.6441 16.2226 20.5428 15.9264 20.3403 15.6795Z" fill="#393E46"/>
</svg>
