<svg width="34" height="33" viewBox="0 0 34 33" fill="none" xmlns="http://www.w3.org/2000/svg">
<path fill-rule="evenodd" clip-rule="evenodd" d="M17.0433 0.333252C7.86159 0.333252 0.419922 7.77492 0.419922 16.9566C0.419922 24.2999 5.18159 30.5316 11.7883 32.7316C12.6199 32.8816 12.9199 32.3699 12.9199 31.9299C12.9199 31.5349 12.9066 30.4882 12.9016 29.1033C8.27659 30.1066 7.29992 26.8733 7.29992 26.8733C6.54659 24.9533 5.45492 24.4416 5.45492 24.4416C3.94659 23.4099 5.56992 23.4333 5.56992 23.4333C7.23992 23.5499 8.11492 25.1466 8.11492 25.1466C9.59826 27.6866 12.0083 26.9532 12.9516 26.5282C13.1033 25.4532 13.5366 24.7199 14.0099 24.3049C10.3199 23.8866 6.43992 22.4599 6.43992 16.0883C6.43992 14.2766 7.08826 12.7899 8.14659 11.6299C7.97826 11.2083 7.40326 9.51659 8.31159 7.22992C8.31159 7.22992 9.70659 6.78159 12.8816 8.93159C14.2376 8.5627 15.6363 8.37441 17.0416 8.37158C18.4469 8.37387 19.8457 8.56217 21.2016 8.93159C24.3783 6.77992 25.7716 7.22992 25.7716 7.22992C26.6799 9.51659 26.1099 11.2083 25.9366 11.6299C27.0033 12.7899 27.6433 14.2749 27.6433 16.0883C27.6433 22.4766 23.7599 23.8799 20.0566 24.2916C20.6483 24.8049 21.1816 25.8183 21.1816 27.3683C21.1816 29.5916 21.1616 31.3849 21.1616 31.9299C21.1616 32.3749 21.4583 32.8916 22.3066 32.7283C28.9099 30.5249 33.6666 24.2983 33.6666 16.9566C33.6666 7.77492 26.2249 0.333252 17.0433 0.333252Z" fill="#E6E7E8"/>
</svg>
